# AST/ASF file generated using VICON BodyLanguage
# -----------------------------------------------
:version 1.10
:name VICON
:units
  mass 1.0
  length 0.45
  angle deg
:documentation
   .ast/.asf automatically generated from VICON data using
   VICON BodyBuilder and BodyLanguage model FoxedUp or BRILLIANT.MOD
:root
   order TX TY TZ RX RY RZ
   axis XYZ
   position 0 0 0  
   orientation 0 0 0 
:bonedata
  begin
     id 1 
     name lhipjoint
     direction 0.603808 -0.713975 0.35448 
     length 2.2025 
     axis 0 0 0  XYZ
  end
  begin
     id 2 
     name lfemur
     direction 0.34202 -0.939693 0  
     length 6.55877  
     axis 0 0 20  XYZ
    dof rx ry rz
    limits (-160.0 20.0)
           (-70.0 70.0)
           (-60.0 70.0)
  end
  begin
     id 3 
     name ltibia
     direction 0.34202 -0.939693 0   
     length 6.80302   
     axis 0 0 20   XYZ
    dof rx
    limits (-10.0 170.0)
  end
  begin
     id 4 
     name lfoot
     direction 0.091848 -0.25235 0.963267   
     length 2.03446   
     axis -90 7.62852e-016 20   XYZ
    dof rx rz
    limits (-45.0 90.0)
           (-70.0 20.0)
  end
  begin
     id 5 
     name ltoes
     direction 1.53608e-011 -4.21925e-011 1   
     length 1.02033   
     axis -90 7.62852e-016 20   XYZ
    dof rx
    limits (-90.0 20.0)
  end
  begin
     id 6 
     name rhipjoint
     direction -0.587285 -0.724947 0.359928   
     length 2.16916  
     axis 0 0 0  XYZ 
  end
  begin
     id 7 
     name rfemur
     direction -0.34202 -0.939693 0   
     length 6.43173   
     axis 0 0 -20   XYZ
    dof rx ry rz
    limits (-160.0 20.0)
           (-70.0 70.0)
           (-70.0 60.0)
  end
  begin
     id 8 
     name rtibia
     direction -0.34202 -0.939693 0   
     length 6.70662   
     axis 0 0 -20   XYZ
    dof rx
    limits (-10.0 170.0)
 end
 begin
     id 9 
     name rfoot
     direction -0.11854 -0.325686 0.938018   
     length 2.0773  
     axis -90 -7.62852e-016 -20   XYZ
    dof rx rz
    limits (-45.0 90.0)
           (-20.0 70.0)
  end
  begin
     id 10 
     name rtoes
     direction -1.53547e-011 -4.21838e-011 1   
     length 1.03267   
     axis -90 -7.62852e-016 -20   XYZ
    dof rx
    limits (-90.0 20.0)
  end
  begin
     id 11 
     name lowerback
     direction -0.0286554 0.999539 0.0100613   
     length 2.08751   
     axis 0 0 0   XYZ
    dof rx ry rz
    limits (-20.0 45.0)
           (-30.0 30.0)
           (-30.0 30.0)
  end
  begin
     id 12 
     name upperback
     direction 0.0227093 0.999705 -0.00860929   
     length 2.08517   
     axis 0 0 0   XYZ
    dof rx ry rz
    limits (-20.0 45.0)
           (-30.0 30.0)
           (-30.0 30.0)
  end
  begin
     id 13 
     name thorax
     direction 0.0351627 0.999285 -0.013892   
     length 2.08412   
     axis 0 0 0   XYZ
    dof rx ry rz
    limits (-20.0 45.0)
           (-30.0 30.0)
           (-30.0 30.0)
  end
  begin
     id 14 
     name lowerneck
     direction -0.0696283 0.997344 0.0213922   
     length 1.44164   
     axis 0 0 0   XYZ
    dof rx ry rz
    limits (-20.0 45.0)
           (-30.0 30.0)
           (-30.0 30.0)
  end
  begin
     id 15 
     name upperneck
     direction 0.0531 0.990412 -0.127531   
     length 1.45022   
     axis 0 0 0   XYZ
    dof rx ry rz
    limits (-20.0 45.0)
           (-30.0 30.0)
           (-30.0 30.0)
  end
  begin
     id 16
     name head
     direction 0.0188154 0.998548 -0.0504727  
     length 1.45845  
     axis 0 0 0   XYZ
    dof rx ry rz
    limits (-20.0 45.0)
           (-30.0 30.0)
           (-30.0 30.0)
  end
  begin
     id 17 
     name lclavicle
     direction 0.961559 0.260051 0.088188  
     length 2.86057  
     axis 0 0 0   XYZ
    dof ry rz
    limits (-20.0 10.0)
           (0.0 20.0)
  end
  begin
     id 18 
     name lhumerus
     direction 1 -4.48959e-011 2.88185e-027   
     length 4.36901   
     axis 180 -30 -90   XYZ
    dof rx ry rz
    limits (-60.0 90.0)
           (-90.0 90.0)
           (-90.0 90.0)
  end
  begin
     id 19
     name lradius
     direction 1 -4.48965e-011 -3.92618e-028   
     length 3.21737   
     axis 180 -30 -90   XYZ
    dof rx
    limits (-10.0 170.0)
  end
  begin
     id 20
     name lwrist
     direction 1 -4.49037e-011 2.57246e-027   
     length 1.60869   
     axis -1.61769e-015 90 90   XYZ
    dof ry
    limits (-180.0 0.0)
 end
  begin
     id 21 
     name lhand
     direction 1 -4.48807e-011 5.12958e-027   
     length 0.564313   
     axis -3.27988e-015 90 90   XYZ
    dof rx rz
    limits (-90.0 90.0)
           (-45.0 45.0)
  end
  begin
     id 22 
     name lfingers
     direction 1 -4.48879e-011 1.02687e-026   
     length 0.454963   
     axis -6.5598e-015 90 90   XYZ
    dof rx
    limits (0.0 90.0)
  end
  begin
     id 23
     name lthumb
     direction 0.707107 -6.3475e-011 0.707107   
     length 0.653239   
     axis -90 45 2.19363e-014   XYZ
    dof rx rz
    limits (-45.0 45.0)
           (-45.0 45.0)
  end
  begin
     id 24 
     name rclavicle
     direction -0.954677 0.253915 0.155304   
     length 3.11497  
     axis 0 0 0   XYZ 
    dof ry rz
    limits (-10.0 20.0)
           (-20.0 0.0)
  end
  begin
     id 25 
     name rhumerus
     direction -1 -4.48958e-011 -8.20169e-028  
     length 4.34118   
     axis 180 30 90   XYZ
    dof rx ry rz
    limits (-90.0 60.0)
           (-90.0 90.0)
           (-90.0 90.0)
  end
  begin
     id 26 
     name rradius
     direction -1 -4.48978e-011 1.5676e-027   
     length 3.09531   
     axis 180 30 90   XYZ
    dof rx
    limits (-10.0 170.0)
  end
  begin
     id 27 
     name rwrist
     direction -1 -4.49001e-011 2.57123e-027   
     length 1.54765   
     axis -1.61769e-015 -90 -90   XYZ
    dof ry
    limits (-180.0 0.0)
  end
  begin
     id 28
     name rhand
     direction -1 -4.48847e-011 5.13225e-027   
     length 0.597446   
     axis -3.27988e-015 -90 -90   XYZ
    dof rx rz
    limits (-90.0 90.0)
           (-45.0 45.0)
  end
  begin
     id 29
     name rfingers
     direction -1 -4.49094e-011 1.02974e-026   
     length 0.481677   
     axis -6.5598e-015 -90 -90   XYZ
    dof rx
    limits (0.0 90.0)
  end
  begin
     id 30
     name rthumb
     direction -0.707107 -6.34859e-011 0.707107   
     length 0.691594   
     axis -90 -45 -2.19363e-014   XYZ
    dof rx rz
    limits (-45.0 45.0)
           (-45.0 45.0)
  end
:hierarchy
  begin
    root lhipjoint rhipjoint lowerback
    lhipjoint lfemur
    lfemur ltibia
    ltibia lfoot
    lfoot ltoes
    rhipjoint rfemur
    rfemur rtibia
    rtibia rfoot
    rfoot rtoes
    lowerback upperback
    upperback thorax
    thorax lowerneck lclavicle rclavicle
    lowerneck upperneck
    upperneck head
    lclavicle lhumerus
    lhumerus lradius
    lradius lwrist
    lwrist lhand lthumb
    lhand lfingers
    rclavicle rhumerus
    rhumerus rradius
    rradius rwrist
    rwrist rhand rthumb
    rhand rfingers
  end

#!OML:ASF I:\Acrobat_Osman\acrobat\cartwheel_test 2\Patient 1\Session 1\acrobat.ASF
:FULLY-SPECIFIED
:DEGREES
97
root 9.91074 12.2348 9.70753 28.6088 -1.90523 -2.36357
lowerback 13.9179 -6.53761 -3.9848
upperback 1.26957 -9.01363 3.52199
thorax -5.18737 -4.32096 7.52468
lowerneck -3.21719 3.89516 -11.7137
upperneck 4.08687 5.55077 4.99682
head 1.39855 2.69117 3.83502
rclavicle 1.35174e-014 1.90833e-014
rhumerus -46.8918 -9.23522 -35.9904
rradius 24.0048
rwrist -0.890183
rhand -16.2265 13.6662
rfingers 7.12502
rthumb 9.98161 -16.0771
lclavicle 1.35174e-014 1.90833e-014
lhumerus -2.19696 -22.4326 82.1174
lradius 33.7087
lwrist 10.0724
lhand -19.1423 53.0936
lfingers 7.12502
lthumb 7.16777 82.9522
rfemur -92.6366 -10.8575 28.226
rtibia 87.3859
rfoot -24.5653 -13.2206
rtoes -2.78697
lfemur -98.8797 28.1028 -32.8589
ltibia 89.4348
lfoot -21.0178 3.21873
ltoes -9.50646
98
root 9.92353 11.8534 9.63874 28.1661 -2.53891 -2.6802
lowerback 14.6546 -6.51538 -4.19617
upperback 1.39363 -9.03867 3.3775
thorax -5.44528 -4.31574 7.58865
lowerneck -2.58963 4.1271 -11.5542
upperneck 3.53737 5.78305 4.90051
head 1.08913 2.81774 3.73457
rclavicle 1.03368e-014 -3.18055e-015
rhumerus -47.2023 -9.78658 -36.3073
rradius 23.9622
rwrist -1.46589
rhand -16.6508 13.3864
rfingers 7.12502
rthumb 9.57224 -16.3762
lclavicle 1.03368e-014 -3.18055e-015
lhumerus -2.1252 -21.2357 81.9425
lradius 31.6575
lwrist 9.25165
lhand -18.6115 53.9455
lfingers 7.12502
lthumb 7.68018 83.786
rfemur -95.7199 -11.0977 29.1966
rtibia 91.4319
rfoot -25.0734 -12.3292
rtoes -4.15308
lfemur -102.969 30.1003 -34.8286
ltibia 93.5283
lfoot -21.6678 1.7288
ltoes -7.9698
99
root 9.93841 11.4649 9.57935 27.2362 -3.23937 -2.93665
lowerback 15.7189 -6.46787 -4.53823
upperback 1.6653 -9.0633 3.20597
thorax -5.70572 -4.30871 7.72964
lowerneck -2.44335 4.30873 -11.3671
upperneck 3.25191 6.00725 4.73967
head 0.959069 2.93615 3.62964
rclavicle 2.70347e-014 -9.54166e-015
rhumerus -47.3424 -10.9272 -36.3871
rradius 23.8054
rwrist -1.51291
rhand -16.6123 13.0203
rfingers 7.12502
rthumb 9.60941 -16.7405
lclavicle 2.70347e-014 -9.54166e-015
lhumerus -1.94793 -19.6983 81.6813
lradius 29.4829
lwrist 8.60191
lhand -18.7267 54.2358
lfingers 7.12502
lthumb 7.56896 84.0803
rfemur -98.0487 -11.0499 29.661
rtibia 95.4804
rfoot -25.7608 -11.72
rtoes -5.57777
lfemur -106.258 31.887 -36.0858
ltibia 97.6929
lfoot -22.4379 0.548683
ltoes -6.22299
100
root 9.95348 11.0735 9.52612 25.8867 -3.95032 -3.09836
lowerback 17.098 -6.68818 -5.24238
upperback 2.3136 -9.49406 3.3559
thorax -5.54213 -4.52725 8.49003
lowerneck -4.24869 4.61145 -12.2938
upperneck 3.49313 6.68232 4.69158
head 1.27795 3.26912 3.86279
rclavicle 3.97569e-015 9.54166e-015
rhumerus -45.7994 -11.7005 -37.021
rradius 23.6847
rwrist -2.04626
rhand -16.8386 12.9487
rfingers 7.12502
rthumb 9.39108 -16.8221
lclavicle 3.97569e-015 9.54166e-015
lhumerus -1.00546 -16.153 81.3002
lradius 26.9606
lwrist 7.4087
lhand -18.0394 54.8309
lfingers 7.12502
lthumb 8.23227 84.6505
rfemur -99.8507 -10.8685 29.6253
rtibia 99.5604
rfoot -26.5713 -11.1566
rtoes -4.86294
lfemur -108.766 33.5032 -36.6778
ltibia 101.841
lfoot -23.292 -0.0421535
ltoes -5.72673
101
root 9.97062 10.6766 9.47923 24.1441 -4.661 -3.11755
lowerback 18.6899 -6.67966 -5.95999
upperback 2.76884 -9.67356 3.23375
thorax -5.77018 -4.59493 8.98648
lowerneck -4.378 4.85666 -12.0978
upperneck 3.14487 7.02936 4.26119
head 1.17537 3.44824 3.67024
rclavicle -9.46215e-014 1.11319e-014
rhumerus -45.4593 -11.5934 -38.089
rradius 24.0343
rwrist -4.00999
rhand -17.6107 12.8049
rfingers 7.12502
rthumb 8.646 -16.998
lclavicle -9.46215e-014 1.11319e-014
lhumerus -0.358904 -13.3414 80.856
lradius 24.4131
lwrist 6.17568
lhand -17.5679 55.2023
lfingers 7.12502
lthumb 8.68729 85.0035
rfemur -101.333 -10.7095 29.2015
rtibia 103.686
rfoot -27.3676 -10.6177
rtoes -3.41476
lfemur -110.66 34.9946 -36.8301
ltibia 105.987
lfoot -24.266 -0.273651
ltoes -5.90789
102
root 9.99698 10.274 9.4385 21.953 -5.25552 -3.01846
lowerback 20.5356 -6.7188 -6.58349
upperback 3.27395 -9.9315 3.04778
thorax -6.07296 -4.69733 9.41761
lowerneck -4.38595 5.10865 -11.9028
upperneck 2.71636 7.36782 3.80045
head 1.02954 3.62453 3.46167
rclavicle -2.54444e-014 1.90833e-014
rhumerus -45.178 -11.9355 -38.8387
rradius 24.2626
rwrist -5.52857
rhand -18.6385 12.9225
rfingers 7.12502
rthumb 7.65407 -16.919
lclavicle -2.54444e-014 1.90833e-014
lhumerus 0.323336 -10.3241 80.2868
lradius 21.9263
lwrist 4.74044
lhand -18.4465 55.2582
lfingers 7.12502
lthumb 7.83935 85.0929
rfemur -102.401 -10.8107 28.6404
rtibia 107.696
rfoot -27.9373 -10.3652
rtoes -3.62059
lfemur -111.914 36.358 -36.634
ltibia 110.13
lfoot -25.255 -0.142169
ltoes -5.97248
103
root 10.0328 9.85283 9.40301 19.4941 -5.68849 -2.97943
lowerback 22.4135 -6.81664 -6.95683
upperback 3.9149 -10.2216 2.91802
thorax -6.24609 -4.8336 9.7764
lowerneck -4.93547 5.32138 -11.8786
upperneck 2.49734 7.73142 3.37294
head 1.04274 3.80844 3.32723
rclavicle 7.15625e-015 7.95139e-015
rhumerus -44.9445 -13.3158 -38.9163
rradius 24.5008
rwrist -6.18064
rhand -19.2896 13.0537
rfingers 7.12502
rthumb 7.02556 -16.8097
lclavicle 7.15625e-015 7.95139e-015
lhumerus 1.47154 -6.07437 79.7352
lradius 19.8342
lwrist 4.1274
lhand -18.9357 55.792
lfingers 7.12502
lthumb 7.36721 85.6437
rfemur -103.313 -11.2053 28.2404
rtibia 111.64
rfoot -28.2327 -10.1091
rtoes -4.02834
lfemur -112.976 37.7441 -36.2937
ltibia 114.295
lfoot -26.1533 0.206749
ltoes -6.71295
104
root 10.074 9.41522 9.38096 16.6445 -6.24727 -2.99437
lowerback 24.467 -6.86415 -7.3279
upperback 4.57067 -10.4632 2.85484
thorax -6.46216 -4.94527 10.2321
lowerneck -5.30129 5.569 -11.9759
upperneck 2.13913 8.12547 2.80839
head 0.977746 4.00686 3.15787
rclavicle 4.69132e-014 3.18055e-015
rhumerus -44.8142 -14.1762 -38.9155
rradius 25.0007
rwrist -7.40712
rhand -19.671 12.3591
rfingers 7.12502
rthumb 6.65746 -17.5162
lclavicle 4.69132e-014 3.18055e-015
lhumerus 2.2711 -2.14251 79.2857
lradius 18.0194
lwrist 2.78827
lhand -19.9602 56.4418
lfingers 7.12502
lthumb 6.37829 86.3258
rfemur -103.938 -11.8502 27.9737
rtibia 115.692
rfoot -28.5786 -9.46915
rtoes -3.32277
lfemur -113.905 39.7607 -36.155
ltibia 118.488
lfoot -27.1713 0.618678
ltoes -8.39505
105
root 10.1173 8.96813 9.37306 13.7153 -6.9341 -2.94066
lowerback 26.2276 -6.91673 -7.78755
upperback 5.12201 -10.7327 2.87734
thorax -6.57656 -5.07884 10.8072
lowerneck -5.09194 5.89883 -12.3098
upperneck 1.50493 8.55817 2.17928
head 0.713345 4.23132 2.97564
rclavicle -6.83819e-014 3.18055e-014
rhumerus -44.7196 -14.8874 -38.436
rradius 25.3386
rwrist -8.5628
rhand -20.4619 11.5709
rfingers 7.12502
rthumb 5.89383 -18.3271
lclavicle -6.83819e-014 3.18055e-014
lhumerus 3.13482 3.30223 79.0249
lradius 16.7519
lwrist 2.46687
lhand -20.2217 57.0232
lfingers 7.12502
lthumb 6.12576 86.9146
rfemur -104.673 -12.7759 27.8106
rtibia 119.781
rfoot -28.9753 -8.46225
rtoes -1.93875
lfemur -115.305 42.4264 -36.7031
ltibia 122.718
lfoot -28.4073 0.616824
ltoes -9.13122
106
root 10.1619 8.50587 9.38283 10.847 -7.57976 -2.90444
lowerback 27.4363 -7.06416 -8.15577
upperback 5.70693 -11.0739 2.98586
thorax -6.33579 -5.28928 11.3509
lowerneck -4.93668 6.24958 -12.8241
upperneck 0.884719 9.02338 1.6918
head 0.448691 4.47748 2.87511
rclavicle -3.73715e-014 5.24792e-014
rhumerus -44.6649 -15.95 -37.4706
rradius 25.6267
rwrist -9.64932
rhand -21.8867 11.4952
rfingers 7.12502
rthumb 4.51816 -18.4366
lclavicle -3.73715e-014 5.24792e-014
lhumerus 4.21693 8.32042 78.635
lradius 16.5414
lwrist 4.50766
lhand -20.5898 58.1046
lfingers 7.12502
lthumb 5.77035 88.006
rfemur -105.71 -14.1908 27.9847
rtibia 123.892
rfoot -29.2535 -6.98472
rtoes -0.550351
lfemur -117.934 45.895 -38.3819
ltibia 127.057
lfoot -29.8637 -0.419458
ltoes -8.47609
107
root 10.2099 8.02304 9.41623 7.98786 -8.19574 -2.73753
lowerback 28.2944 -7.30806 -8.55439
upperback 6.18221 -11.5381 3.13633
thorax -5.98269 -5.57427 11.9426
lowerneck -4.70305 6.66186 -13.3686
upperneck 0.340661 9.55103 1.23494
head 0.187678 4.75569 2.78559
rclavicle 1.00187e-013 -6.20208e-014
rhumerus -44.6922 -16.5893 -36.3363
rradius 26.0473
rwrist -11.3827
rhand -23.707 11.8032
rfingers 7.12502
rthumb 2.76032 -18.1587
lclavicle 1.00187e-013 -6.20208e-014
lhumerus 4.84737 11.3251 77.7104
lradius 16.4876
lwrist 7.17272
lhand -23.1952 58.4629
lfingers 7.12502
lthumb 3.25463 88.4178
rfemur -107.19 -16.3796 28.485
rtibia 128.052
rfoot -29.3643 -5.36314
rtoes -0.333151
lfemur -122.75 50.494 -42.4751
ltibia 131.497
lfoot -31.5953 -2.31744
ltoes -7.81076
